<svg width="40" height="31" viewBox="0 0 40 31" fill="none" xmlns="http://www.w3.org/2000/svg">
<path d="M33.8451 2.53349C31.3116 1.35251 28.5687 0.495339 25.7115 8.7618e-05C25.6864 -0.000713553 25.6615 0.00398768 25.6385 0.0138609C25.6154 0.0237341 25.5949 0.0385394 25.5782 0.0572324C25.2353 0.685821 24.8353 1.50489 24.5686 2.13348C21.538 1.67632 18.4561 1.67632 15.4255 2.13348C15.1588 1.48584 14.7588 0.685821 14.3969 0.0572324C14.3779 0.0191362 14.3207 8.7618e-05 14.2636 8.7618e-05C11.4063 0.495339 8.68246 1.35251 6.13 2.53349C6.11096 2.53349 6.09191 2.55254 6.07286 2.57159C0.891766 10.3242 -0.536845 17.8672 0.167936 25.3341C0.167936 25.3722 0.186984 25.4103 0.225081 25.4294C3.65375 27.9437 6.94907 29.4676 10.2063 30.4771C10.2635 30.4962 10.3206 30.4771 10.3396 30.439C11.1016 29.3914 11.7873 28.2866 12.3778 27.1246C12.4159 27.0484 12.3778 26.9723 12.3016 26.9532C11.2159 26.5341 10.1873 26.0389 9.17771 25.4675C9.10151 25.4294 9.10151 25.3151 9.15866 25.2579C9.36819 25.1055 9.57772 24.9341 9.78725 24.7817C9.82534 24.7436 9.88249 24.7436 9.92058 24.7627C16.4731 27.7532 23.54 27.7532 30.0164 24.7627C30.0545 24.7436 30.1116 24.7436 30.1497 24.7817C30.3592 24.9532 30.5688 25.1055 30.7783 25.277C30.8545 25.3341 30.8545 25.4484 30.7592 25.4865C29.7687 26.077 28.7211 26.5532 27.6354 26.9723C27.5592 26.9913 27.5401 27.0865 27.5592 27.1437C28.1687 28.3056 28.8544 29.4104 29.5973 30.4581C29.6545 30.4771 29.7116 30.4962 29.7687 30.4771C33.045 29.4676 36.3404 27.9437 39.769 25.4294C39.8071 25.4103 39.8262 25.3722 39.8262 25.3341C40.6643 16.7053 38.4356 9.21939 33.9212 2.57159C33.9022 2.55254 33.8831 2.53349 33.8451 2.53349ZM13.3683 20.7816C11.4063 20.7816 9.7682 18.972 9.7682 16.7434C9.7682 14.5148 11.3682 12.7052 13.3683 12.7052C15.3874 12.7052 16.9874 14.5338 16.9684 16.7434C16.9684 18.972 15.3684 20.7816 13.3683 20.7816ZM26.6449 20.7816C24.6829 20.7816 23.0448 18.972 23.0448 16.7434C23.0448 14.5148 24.6448 12.7052 26.6449 12.7052C28.664 12.7052 30.264 14.5338 30.2449 16.7434C30.2449 18.972 28.664 20.7816 26.6449 20.7816Z" fill="#FFFFFA"/>
</svg>
