<svg width="35" height="34" viewBox="0 0 35 34" fill="none" xmlns="http://www.w3.org/2000/svg">
<path d="M7.34523 3.67445C7.34474 4.64849 6.95734 5.58244 6.26824 6.27084C5.57915 6.95925 4.64481 7.34571 3.67078 7.34523C2.69674 7.34474 1.76279 6.95734 1.07439 6.26824C0.385981 5.57915 -0.000486559 4.64481 4.5974e-07 3.67078C0.000487478 2.69674 0.387889 1.76279 1.07698 1.07439C1.76608 0.385981 2.70041 -0.000486559 3.67445 4.5974e-07C4.64849 0.000487478 5.58244 0.387889 6.27084 1.07698C6.95925 1.76608 7.34571 2.70041 7.34523 3.67445ZM7.4554 10.0648H0.110179V33.0554H7.4554V10.0648ZM19.0609 10.0648H11.7524V33.0554H18.9874V20.9908C18.9874 14.2699 27.7466 13.6456 27.7466 20.9908V33.0554H35V18.4934C35 7.16343 22.0357 7.58578 18.9874 13.1498L19.0609 10.0648Z" fill="#FFFFFA"/>
</svg>
