<svg width="780" height="249" viewBox="0 0 780 249" fill="none" xmlns="http://www.w3.org/2000/svg">
<path d="M345.977 94.893C335.815 94.7272 325.649 94.8486 315.487 94.8405C311.084 94.8405 306.677 94.8405 301.976 94.8405C301.976 114.823 301.976 133.717 301.976 153.081C306.174 153.081 310.984 153.101 315.137 153.101V138.114H343.455L355.153 153.101C360.119 153.101 365.138 153.101 370.225 153.101L356.979 135.72C357.493 135.525 358.446 135.153 359.094 134.866C364.257 132.475 367.623 128.438 369.244 122.779C369.811 120.797 370.132 118.892 370.205 117.044C370.317 114.661 369.987 112.177 369.244 109.572C366.513 100.046 358.857 95.1074 345.977 94.8971V94.893ZM349.833 125.32C338.746 125.32 327.386 125.482 315.387 125.482V106.494C326.956 106.494 338.224 106.171 349.455 106.648C354.248 106.85 356.77 110.62 356.926 115.523C357.087 120.607 355.185 125.32 349.833 125.32ZM456.252 94.8566H475.067V153.101C470.089 153.101 466.397 153.101 461.729 153.101V110.22C461.137 111.114 460.144 112.804 459.919 113.193C451.748 126.367 443.577 139.542 435.273 152.931C431.923 152.931 428.678 152.931 425.127 152.931C416.895 139.757 408.648 126.558 400.4 113.355C399.946 112.639 399.206 111.364 398.631 110.568C398.631 123.346 398.631 139.708 398.631 153.105H385.602C385.602 133.964 385.602 114.37 385.602 94.8566H403.67C412.026 108.545 420.788 122.901 430.033 138.045C439.113 123.087 447.678 108.978 456.248 94.8607L456.252 94.8566ZM615.417 95.1843C601.757 94.6868 588.065 94.9618 574.384 94.9659C573.306 94.9659 572.213 95.067 571.002 95.067C571.002 114.111 571.002 133.56 571.002 153.105C587.598 153.105 603.687 154.375 619.483 152.745C635.045 151.143 642.846 137.932 641.523 120.041C640.478 105.96 630.119 95.7223 615.417 95.1843ZM609.574 142.434C601.371 142.556 593.159 142.455 584.365 142.455V106.692C595.665 106.692 606.245 106.191 616.748 106.895C622.458 107.279 626.295 111.381 627.947 117.319C632.117 132.318 625.012 142.208 609.574 142.434ZM513.929 94.8607C503.465 114.232 493.187 133.268 482.474 153.105H496.633C499.15 148.943 501.684 144.752 504.085 140.776H541.136C543.774 144.882 546.457 149.076 549.042 153.105C553.482 153.105 557.624 153.105 563.157 153.105C552.211 132.981 541.732 113.706 531.481 94.8607H513.929ZM509.276 129.648C514.057 120.975 517.889 114.026 522.586 105.515C527.512 114.147 531.711 121.501 536.363 129.648H509.276ZM693.277 94.8607H675.724C665.261 114.232 654.982 133.268 644.27 153.105H658.429C660.946 148.943 663.479 144.752 665.88 140.776H702.932C705.57 144.882 708.252 149.076 710.838 153.105C715.277 153.105 719.419 153.105 724.952 153.105C714.006 132.981 703.527 113.706 693.277 94.8607ZM671.075 129.648C675.857 120.975 679.689 114.026 684.386 105.515C689.312 114.147 693.51 121.501 698.163 129.648H671.075ZM244.798 94.8607L213.343 153.105H227.502C230.019 148.943 232.553 144.752 234.954 140.776H272.005C274.643 144.882 277.326 149.076 279.911 153.105C284.351 153.105 288.493 153.105 294.026 153.105L262.35 94.8607H244.798ZM240.145 129.648C244.926 120.975 248.759 114.026 253.455 105.515C258.381 114.147 262.58 121.501 267.232 129.648H240.145Z" fill="#FFFFFA"/>
<path d="M203.692 170.491C177.083 175.672 126.122 185.943 126.122 185.943V77.6206C138.724 71.7472 151.058 65.9952 165.168 59.418C161.561 102.696 174.429 138.98 203.692 170.491ZM61.3635 189.587C74.3722 183.269 87.2765 177.003 100.768 170.45C91.2857 134.777 96.1072 101.494 117.287 69.5225C75.8681 91.0056 51.1454 146.006 61.3635 189.587Z" fill="#FFFFFA"/>
</svg>
